<svg xmlns="http://www.w3.org/2000/svg" viewBox="0 0 32 32">
  <defs>
    <clipPath id="strings-clip">
      <ellipse cx="16" cy="9" rx="5.3" ry="6.8"/>
    </clipPath>
  </defs>
  <g transform="rotate(45 16 16)" fill="none" stroke="#5b8c5a" stroke-linecap="round">
    <g clip-path="url(#strings-clip)" stroke-width="0.6">
      <line x1="6" y1="3" x2="26" y2="3"/>
      <line x1="6" y1="5.5" x2="26" y2="5.5"/>
      <line x1="6" y1="8" x2="26" y2="8"/>
      <line x1="6" y1="10.5" x2="26" y2="10.5"/>
      <line x1="6" y1="13" x2="26" y2="13"/>
      <line x1="6" y1="15.5" x2="26" y2="15.5"/>
      <line x1="10" y1="0" x2="10" y2="18"/>
      <line x1="12" y1="0" x2="12" y2="18"/>
      <line x1="14" y1="0" x2="14" y2="18"/>
      <line x1="16" y1="0" x2="16" y2="18"/>
      <line x1="18" y1="0" x2="18" y2="18"/>
      <line x1="20" y1="0" x2="20" y2="18"/>
      <line x1="22" y1="0" x2="22" y2="18"/>
    </g>
    <ellipse cx="16" cy="9" rx="6.5" ry="8" stroke-width="2.4"/>
    <path d="M12.85 16 L19.15 16 L18.2 20 L13.8 20 Z" fill="#5b8c5a" stroke="none"/>
    <rect x="13.8" y="20" width="4.4" height="7" rx="0.8" fill="#5b8c5a" stroke="none"/>
    <path d="M13.8 27 L18.2 27 C18.6 27.6 19.3 28.4 19.2 29.2 C19.05 30.4 17.6 31 16 31 C14.4 31 12.95 30.4 12.8 29.2 C12.7 28.4 13.4 27.6 13.8 27 Z" fill="#5b8c5a" stroke="none"/>
  </g>
</svg>
