<svg xmlns="http://www.w3.org/2000/svg" xmlns:xlink="http://www.w3.org/1999/xlink" aria-hidden="true" role="img" class="iconify iconify--logos" width="35.93" height="32" preserveAspectRatio="xMidYMid meet" viewBox="0 0 256 228"><path fill="#00D8FF" d="M210.483 73.824a171.49 171.49 0 0 0-8.24-2.597c.465-1.9.893-3.777 1.273-5.621c6.238-30.281 2.16-54.676-11.769-62.708c-13.355-7.7-35.196.329-57.254 19.526a171.23 171.23 0 0 0-6.375 5.848a155.866 155.866 0 0 0-4.241-3.917C100.759 3.829 77.587-4.822 63.673 3.233C50.33 10.957 46.379 33.89 51.995 62.588a170.974 170.974 0 0 0 1.892 8.48c-3.28.932-6.445 1.924-9.474 2.98C17.309 83.498 0 98.307 0 113.668c0 15.865 18.582 31.778 46.812 41.427a145.52 145.52 0 0 0 6.921 2.165a167.467 167.467 0 0 0-2.01 9.138c-5.354 28.2-1.173 50.591 12.134 58.266c13.744 7.926 36.812-.22 59.273-19.855a145.567 145.567 0 0 0 5.342-4.923a168.064 168.064 0 0 0 6.92 6.314c21.758 18.722 43.246 26.282 56.54 18.586c13.731-7.949 18.194-32.003 12.4-61.268a145.016 145.016 0 0 0-1.535-6.842c1.62-.48 3.21-.974 4.76-1.488c29.348-9.723 48.443-25.443 48.443-41.52c0-15.417-17.868-30.326-45.517-39.844Zm-6.365 70.984c-1.596.54-3.233 1.manag06-4.924 1.48c-4.877-11.787-11.403-23.898-19.378-35.832c4.554-9.902 8.296-19.957 11.068-29.895c3.726 1.097 7.237 2.26 10.48 3.494c23.921 8.65 38.007 20.234 38.007 29.375c0 9.577-14.665 21.56-35.253 31.378ZM128 149.787c-3.601-3.514-7.232-7.22-10.858-11.065c3.543-.165 7.196-.25 10.858-.25c3.661 0 7.315.085 10.857.25c-3.624 3.846-7.255 7.552-10.857 11.065Zm-28.062-11.785a381.46 381.46 0 0 1-10.745-13.14c3.467.09 7.038.138 10.703.138l.042-.001c3.663 0 7.231-.047 10.696-.136a382.255 382.255 0 0 1-10.696 13.139Zm56.196 0a383.31 383.31 0 0 1-10.72-13.14c3.466.089 7.036.137 10.72.137c3.662 0 7.23-.048 10.694-.137a381.46 381.46 0 0 1-10.694 13.14ZM56.098 144.8c-1.69-.474-3.328-.968-4.924-1.48c-20.588-9.819-35.253-21.801-35.253-31.378c0-9.14 14.086-20.725 38.007-29.375c3.243-1.234 6.754-2.397 10.48-3.494c2.772 9.938 6.514 19.993 11.068 29.895c-7.975 11.934-14.501 24.045-19.378 35.832Zm27.985-66.002a381.46 381.46 0 0 1 13.14-10.72c-.09 3.466-.137 7.036-.137 10.72c0 3.662.047 7.23.136 10.694a381.46 381.46 0 0 1-13.139-10.694Zm56.756 0a382.255 382.255 0 0 1-13.14 10.695c.09-3.464.138-7.032.138-10.695c0-3.664-.048-7.234-.138-10.72a382.255 382.255 0 0 1 13.14 10.72Zm-27.985-38.66c3.514 3.601 7.22 7.232 11.065 10.858c-3.845 3.543-7.551 7.174-11.065 10.776c-3.512-3.602-7.142-7.233-10.776-10.776c3.634-3.626 7.264-7.257 10.776-10.858ZM128 0c15.865 0 31.778 18.582 41.427 46.812a145.52 145.52 0 0 1 2.165 6.921a167.467 167.467 0 0 1-9.138-2.01c-9.899-27.348-25.619-46.443-41.696-46.443c-15.417 0-30.326 17.868-39.844 45.517a145.016 145.016 0 0 1-1.488 4.76c-.48-1.62-.974-3.21-1.488-4.76C68.22 21.868 83.583 0 96.332 0Z"></path></svg>
